<svg xmlns="http://www.w3.org/2000/svg" viewBox="0 0 512 512">
<mask id="mask0_415_226" style="mask-type:luminance" maskUnits="userSpaceOnUse" x="0" y="0" width="512" height="516">
<path d="M511.7 0.700195H0.100098V515.9H511.7V0.700195Z" fill="white"/>
</mask>
<g mask="url(#mask0_415_226)">
<path d="M365.7 225.1C358.7 226.2 340.8 226.7 357.3 240.8C357.3 240.8 360.3 241 352.2 245.8C344.1 250.6 370.3 253.5 373.4 256.9C376.5 260.4 347.3 256.6 347.9 265.4C348.5 274.2 342.9 268.6 362.3 289.3C362.3 289.3 350.7 286.6 349.3 288.2C347.9 289.9 374.8 312.1 374.6 318.4C374.6 318.4 369.1 322.2 366.8 318.9C364.5 315.6 348.3 297.6 345.6 297.1C343.6 296.7 339.8 297.6 338.1 301.1C338.1 301.1 345.2 317.6 343 318.1C340.8 318.6 329.7 310.7 329.7 310.7C329.7 310.7 322.4 313.9 324.8 320.5C327.2 327.1 346.9 349.5 345.8 350.9C345.8 350.9 344.1 354.6 341.6 354.3C339.1 354 325.4 329.3 322 328.3C318.6 327.3 325.9 351.4 325.9 351.4C325.9 351.4 313.6 338.4 310.3 335.7C307 333 306.5 338.6 306.5 338.6L310.1 366.1C310.1 366.1 271.6 308.8 281.1 377.1C281.1 377.1 280.2 381 278.9 380.9C277.6 380.8 269.4 358.3 270.4 352.1C271.4 345.9 263.7 369.1 263.7 369.1C263.7 369.1 251.6 321.2 226.7 370.3C226.7 370.3 225 351.8 221.1 348.6C217.3 345.4 214.1 343.7 213.1 344.3C212.2 344.9 203.3 353.3 199.9 354.1C196.5 354.9 202.7 343 197.5 339.6C197.5 339.6 198 336.3 195 331.5C192 326.7 189.1 328.5 171.9 347C171.9 347 179.1 329.4 179 323.3C178.9 317.2 172.2 315.8 172.2 315.8C172.2 315.8 159.7 325.3 156.1 324.2C152.5 323 162.1 311.4 162.3 308.1C162.4 307.1 160.9 307.5 160.9 307.5C160.9 307.5 159.4 306.4 146.8 313.8L126.4 326.8C124.9 325.9 122.9 326.1 123.5 321.2C123.7 319.8 161.6 302 159.9 300.1C158.2 298.2 145.5 295.1 145.5 295.1C145.5 295.1 153.4 285.5 151.1 284.5C148.7 283.5 131.4 282 131.4 282C131.4 282 128.4 277.2 129 278.2C129.6 279.2 145.9 275.6 145.9 275.6L135 267C135 267 162.6 262.1 138.2 247.5C129.2 242.1 119.8 238.4 109.6 236.5C135.6 237.8 152.8 231.2 149.9 221.7C149.9 221.7 149.1 218.3 123.2 208.8C123.2 208.8 123.9 205.7 125.6 205.3C127.3 204.9 154.3 214.7 152.4 213.2C150.5 211.6 140.6 200.6 142.4 200.8C144.2 200.9 156.8 206.2 161 202.3C165 198.5 167.5 191.6 170.2 190.1C172.8 188.6 163.2 179.6 175.9 183.8C175.9 183.8 184.5 178.9 177.7 171C170.9 163 149.3 137.5 184.5 168.3C192.9 175.7 214 153.2 212.3 140.9C212.3 140.9 220.7 149.4 222.5 150.3C224.3 151.2 236.1 152.6 238.8 148.5C240 146.6 234.5 129.2 238 121.5C238 121.5 239.5 121.4 240.9 123C242.3 124.6 242.5 142.8 248.9 146.3C248.9 146.3 256.1 142.1 257.3 138.9C258.5 135.8 255.4 158.5 276.9 148.7C276.9 148.7 287.4 139.4 290.4 139.1C293.4 138.8 288.2 150.2 290.8 154.2C293.5 158.3 302.3 161 305.1 155.9C307.9 150.8 321.4 140.7 322.4 141.1C323.4 141.5 315.5 162.6 314.6 164.6C313.3 167.6 312.4 172.1 312.4 172.1C312.4 172.1 313.4 178 320.8 179.6C320.8 179.6 334.7 171.5 349.1 161C347.6 162.8 346.1 164.7 344.5 166.7C344.5 166.7 325.8 185.9 325.8 188.7C325.8 191.5 332.2 197.7 337.4 194.2C342.6 190.7 355.3 185.5 356.4 186.4C357.5 187.3 359.5 189.9 356.9 191.4C354.3 192.9 339.6 200.6 339.6 200.6C339.6 200.6 356.4 201.7 376.9 197.6C354.7 206.6 347 220.4 347.1 221.7C347.8 226.1 382.3 217.1 383.3 219.3C388.5 230.9 372.6 223.9 365.7 225.1ZM511.6 226C511.4 224.7 508 223.5 505.8 221.6C498.2 215.2 470.9 188.4 417.2 190.1C410.4 190.3 404.2 191 398.6 191.9C410 188.2 416 186 419.4 184.6C423.6 182.9 450.9 173.6 465.7 125.4C467 121.3 470.5 111.4 469.6 110.6C468.5 109.7 459.3 111.3 450 117C440.7 122.7 409.3 127.6 405.6 128.2C403.4 128.6 394.2 127.2 380.4 134.4C395.9 118.5 412.4 95.7998 416.8 64.0998C418.9 48.8998 418 42.5998 417.4 42.6998C416.5 42.7998 416 42.7998 414.8 43.0998C411.3 44.0998 407.8 46.9998 396.4 54.6998C385 62.2998 372.9 70.7998 372.9 70.7998C372.9 70.7998 377 29.2998 375.8 28.2998C374.5 27.3998 351 27.5998 314.8 67.8998C314.8 67.8998 318.9 33.3998 312.1 20.3998C312.1 20.3998 310.2 10.9998 308.7 6.09976C308 3.59976 306 0.999761 305.7 1.29976C305.3 1.59976 302.1 2.09976 297 7.99976C289 17.0998 251.9 28.2998 245.8 76.2998C241.2 56.8998 231.3 30.9998 207 17.8998C193.2 4.39976 187.1 0.399761 186.4 0.799761C185.8 1.09976 186 7.09976 184 20.5998C181.6 35.6998 179.6 40.4998 179.6 40.4998C179.6 40.4998 154 17.9998 153.4 17.2998C152.2 16.0998 136.6 65.3998 141.2 89.9998C141.2 89.9998 133.1 83.6998 118.4 76.1998C101.7 67.5998 73.6999 66.0998 73.8999 67.4998C74.1999 69.6998 97.5999 115.3 107.4 131.3C107.4 131.3 44.4999 120.5 45.5999 124.4C45.9999 125.7 47.4999 128.2 49.8999 138.7C49.8999 138.7 25.1999 138.2 25.4999 140.2C25.8999 142.5 44.1999 172.8 45.5999 174.5C45.5999 174.5 26.4999 178.2 22.4999 178.4C19.7999 178.5 35.2999 221.3 77.6999 232C84.0999 233.6 90.2999 234.8 96.1999 235.6C82.2999 235.3 66.8999 238.2 49.1999 244.8C49.1999 244.8 38.9999 248.8 33.5999 253.1C28.1999 257.4 1.1999 261.9 -0.100098 265.9C0.499902 268.8 32.7999 290.9 32.7999 290.9C32.7999 290.9 13.8999 300.1 12.5999 301.9C11.6999 303.1 10.9999 304.2 11.1999 304.5C11.3999 304.8 12.6999 306.3 15.9999 308.4C23.5999 313.1 90.8999 320.1 94.9999 318.5C99.0999 316.9 58.3999 362.6 57.7999 385.6C57.7999 385.6 64.4999 386.1 68.1999 386.4C71.0999 386.6 55.8999 415.2 58.6999 415.1C76.9999 414.3 107.3 396.6 113 392.6C118.7 388.5 126.5 382.5 128.5 380.5C130.6 378.5 115.2 406 121.5 430.2C121.5 430.2 123.5 449 123.6 452.7C123.7 456.5 129 456.5 129 459C128.9 462.1 143.8 447.2 150.9 441.5C158 435.8 167.5 424.8 172.2 417.5C176.8 410.3 172.7 474.3 170.8 486.6C170.2 490.6 171.1 491 171.7 492.3C171.9 492.7 178.5 487.3 180.6 485.9C183.7 483.8 215.8 440.7 217.8 429.9C217.8 429.9 234.9 505.1 240.7 513.2C242 514.9 243 516.9 243.9 515.5C245.6 512.8 248.2 505.8 250.1 505.2C252.6 504.5 259.8 503.6 263.6 492.8C267.4 482.1 274.2 471.6 277.5 443.8C277.5 443.8 313.9 490.2 318.6 494.5C320.5 496.2 330.4 479.8 334.7 453.3C339.1 426.9 329.7 391.3 323.7 390.1C323.7 390.1 321.2 386.2 328.1 388.7C332 390.1 347.2 416.4 382.1 436.4C388 439.8 400.5 439.8 400.6 439.6C403.4 431.7 376 360 376 360C376 360 376.7 359.2 382.2 361.4C387.7 363.7 440.1 397.5 471.8 381.6C478.2 378.4 478.6 377.7 478.6 377.7C482.2 362.1 454.3 332.5 437.1 319.1C437.1 319.1 482.2 317.3 489.1 305.3C489.1 305.3 497.4 302.3 501.7 296.4C502.5 295.4 496.8 285.1 490.3 280.5C473.3 268.7 469.6 264.2 469.6 264.2C469.6 264.2 474.4 258.4 481.2 256.3C488 254.2 510.3 240.4 504.4 233.7C504.7 233.9 511.9 227.6 511.6 226Z" fill="#FFF17A"/>
</g>
</svg>
